<svg width="12" height="13" viewBox="0 0 12 13" fill="none" xmlns="http://www.w3.org/2000/svg">
<g clip-path="url(#clip0)">
<path fill-rule="evenodd" clip-rule="evenodd" d="M3.17157 2.67157C3.92172 1.92143 4.93913 1.5 6 1.5C7.06087 1.5 8.07828 1.92143 8.82843 2.67157C9.57857 3.42172 10 4.43913 10 5.5C10 7.04903 8.99213 8.55212 7.88702 9.71863C7.34469 10.2911 6.80067 10.7597 6.39166 11.0854C6.23944 11.2066 6.10649 11.3076 6 11.3863C5.89351 11.3076 5.76056 11.2066 5.60834 11.0854C5.19933 10.7597 4.65531 10.2911 4.11298 9.71863C3.00787 8.55212 2 7.04903 2 5.5C2 4.43913 2.42143 3.42172 3.17157 2.67157ZM5.72238 12.4158C5.72252 12.4159 5.72265 12.416 6 12L5.72265 12.416C5.8906 12.528 6.1094 12.528 6.27735 12.416L6 12C6.27735 12.416 6.27748 12.4159 6.27762 12.4158L6.27799 12.4156L6.27905 12.4149L6.28238 12.4127L6.29384 12.4049L6.33522 12.3765C6.37074 12.3519 6.42177 12.3161 6.4861 12.2696C6.61473 12.1767 6.79682 12.0411 7.01459 11.8677C7.44933 11.5215 8.03031 11.0214 8.61298 10.4064C9.75787 9.19788 11 7.45097 11 5.5C11 4.17392 10.4732 2.90215 9.53553 1.96447C8.59785 1.02678 7.32608 0.5 6 0.5C4.67392 0.5 3.40215 1.02678 2.46447 1.96447C1.52678 2.90215 1 4.17392 1 5.5C1 7.45097 2.24213 9.19788 3.38702 10.4064C3.96969 11.0214 4.55067 11.5215 4.98541 11.8677C5.20318 12.0411 5.38527 12.1767 5.5139 12.2696C5.57823 12.3161 5.62926 12.3519 5.66478 12.3765L5.70616 12.4049L5.71762 12.4127L5.72095 12.4149L5.72201 12.4156L5.72238 12.4158ZM5 5.5C5 4.94772 5.44772 4.5 6 4.5C6.55228 4.5 7 4.94772 7 5.5C7 6.05228 6.55228 6.5 6 6.5C5.44772 6.5 5 6.05228 5 5.5ZM6 3.5C4.89543 3.5 4 4.39543 4 5.5C4 6.60457 4.89543 7.5 6 7.5C7.10457 7.5 8 6.60457 8 5.5C8 4.39543 7.10457 3.5 6 3.5Z" fill="#EFF0F3"/>
</g>
<defs>
<clipPath id="clip0">
<rect width="12" height="12" fill="white" transform="translate(0 0.5)"/>
</clipPath>
</defs>
</svg>
